<svg width="64" height="64" viewBox="0 0 64 64" fill="none" xmlns="http://www.w3.org/2000/svg">
<path d="M63.5556 31.7778C63.5556 49.3282 49.3282 63.5556 31.7778 63.5556C14.2274 63.5556 0 49.3282 0 31.7778C0 14.2274 14.2274 0 31.7778 0C49.3282 0 63.5556 14.2274 63.5556 31.7778Z" fill="#F27B3C"/>
<path d="M18.485 15.0061C-2.42604 26.9627 11.3517 41.1959 27.2471 39.2244C46.7981 41.4953 55.0812 24.936 39.7737 16.069C34.0666 13.3951 29.9222 13.7222 18.485 15.0061Z" fill="black" stroke="black" stroke-width="0.390209"/>
<path d="M13.6758 19.1045L16.2067 8.72809L21.0152 16.9533L13.6758 19.1045Z" fill="black" stroke="black" stroke-width="0.387775"/>
<path d="M36.2004 17.9656L41.1355 8.9812L44.0459 23.9134L36.2004 17.9656Z" fill="black" stroke="black" stroke-width="0.387775"/>
<path d="M27.3427 39.2244C27.3427 39.2244 26.5834 51.1199 24.9383 52.2577C23.2934 53.3965 33.2901 55.5477 35.6944 53.27C40.1069 49.5092 32.1993 41.7499 31.2654 38.8445C28.3788 29.7858 27.3427 39.2241 27.3427 39.2241V39.2244Z" fill="black" stroke="black" stroke-width="0.387775"/>
<path d="M35.5452 50.543C35.5452 50.543 42.4129 49.9898 44.881 45.0115C47.3491 40.0332 45.8468 36.0505 46.3833 34.5018C46.9199 32.9529 49.4953 26.7577 55.7192 30.2979C61.9431 33.838 61.4066 39.0376 58.6165 40.3651C55.8264 41.6926 50.9341 41.5223 54.1095 40.3651C57.1751 39.2479 61.1074 37.2859 56.685 33.3955C53.2804 30.4005 51.9613 30.3733 49.2806 32.7317C46.0432 35.5799 50.9544 42.6635 44.7737 48.2201C39.0658 53.3514 35.3305 51.6496 35.3305 51.6496L35.5452 50.543Z" fill="black" stroke="black" stroke-width="0.333906"/>
<path d="M33.1344 19.6371C34.275 18.5236 36.7604 14.6163 41.0174 19.7715C39.7978 21.0879 38.7666 21.7775 37.2636 22.1008C37.3892 21.7497 34.7145 22.0795 33.1344 19.6371V19.6371Z" fill="white" stroke="white" stroke-width="0.140497"/>
<path d="M39.0808 19.4848C39.0808 20.7706 38.147 21.8129 36.9952 21.8129C35.8434 21.8129 34.9097 20.7705 34.9097 19.4848C34.9097 18.199 35.8435 17.1567 36.9952 17.1567C38.1471 17.1567 39.0808 18.1991 39.0808 19.4848Z" fill="black" stroke="black" stroke-width="0.129305"/>
<path d="M15.2381 19.4586C16.3788 18.3452 18.8642 14.4378 23.1212 19.593C21.9016 20.9094 20.8704 21.5991 19.3673 21.9224C19.493 21.5712 16.8182 21.901 15.2381 19.4586V19.4586Z" fill="white" stroke="white" stroke-width="0.140497"/>
<path d="M21.1846 19.3063C21.1846 20.5921 20.2508 21.6343 19.099 21.6343C17.9472 21.6343 17.0135 20.592 17.0135 19.3063C17.0135 18.0205 17.9472 16.9782 19.099 16.9782C20.2509 16.9782 21.1846 18.0206 21.1846 19.3063Z" fill="black" stroke="black" stroke-width="0.129305"/>
<path d="M42.8199 23.1172C42.8199 30.681 36.0987 36.8128 27.8078 36.8128C19.5169 36.8128 12.7957 30.6812 12.7957 23.1172C12.7957 22.9816 12.7979 22.846 12.8023 22.7105L27.8078 23.1172H42.8199Z" fill="white" stroke="black" stroke-width="0.459413"/>
<path d="M13.5637 27.6055L14.0257 22.5597L16.9511 32.2907L17.8749 23.1L21.1083 35.1736L22.494 22.9196L24.8036 36.4348L26.3433 22.7395L28.9608 36.4348L30.6544 23.0997L33.2719 35.714L35.7354 22.9196L37.2751 33.3714L40.0466 23.0997L40.6625 30.1279V29.407L40.9704 29.7674" stroke="black" stroke-width="0.510455"/>
</svg>
